REM MD5 4d4d1d34484bd861bbd3e8cefd2777b6
FILE "Chibi Maruko-chan - Maruko Enikki World (Japan).bin" BINARY
  TRACK 01 MODE2/2352
    INDEX 01 00:00:00
  TRACK 02 AUDIO
    INDEX 00 54:48:33
    INDEX 01 54:50:33
  TRACK 03 AUDIO
    INDEX 00 56:16:04
    INDEX 01 56:18:04
  TRACK 04 AUDIO
    INDEX 00 57:45:04
    INDEX 01 57:47:04
REM LEADOUT 60:50:05
